<?xml version="1.0" encoding="UTF-8" standalone="no"?>
<svg width="82px" height="51px" viewBox="0 0 82 51" version="1.1" xmlns="http://www.w3.org/2000/svg" xmlns:xlink="http://www.w3.org/1999/xlink">
    <!-- Generator: sketchtool 41.1 (35376) - http://www.bohemiancoding.com/sketch -->
    <title>F2B861D6-091F-4514-A5CA-075B8DF70D07</title>
    <desc>Created with sketchtool.</desc>
    <defs>
        <polygon id="path-1" points="25.1929 0.467 0.9039 0.467 0.9039 24.7567 25.1929 24.7567 25.1929 0.467"></polygon>
        <polygon id="path-3" points="0.000366265061 19.3350384 42.9476916 19.3350384 42.9476916 0.370404092 0.000366265061 0.370404092"></polygon>
    </defs>
    <g id="Page-1" stroke="none" stroke-width="1" fill="none" fill-rule="evenodd">
        <g id="Desktop-Amigos-3-Columns-Copy-2" transform="translate(-465.000000, -513.000000)">
            <g id="Page-1" transform="translate(465.000000, 512.000000)">
                <g id="Group-8" transform="translate(44.000000, 0.533000)">
                    <mask id="mask-2" fill="white">
                        <use xlink:href="#path-1"></use>
                    </mask>
                    <g id="Clip-7"></g>
                </g>
                <g id="Group-4" transform="translate(3.000000, 5.000000)">
                    <path d="M32.5943855,16.5798875 C32.5943855,22.7551304 27.6159277,27.7619847 21.4736627,27.7619847 C15.3323133,27.7619847 10.3538554,22.7551304 10.3538554,16.5798875 C10.3538554,10.4046445 15.3323133,5.39779028 21.4736627,5.39779028 C27.6159277,5.39779028 32.5943855,10.4046445 32.5943855,16.5798875" id="Fill-1" fill="#FFFFFF"></path>
                    <g id="Group-5" transform="translate(0.000000, 27.191509)">
                        <mask id="mask-4" fill="white">
                            <use xlink:href="#path-3"></use>
                        </mask>
                        <g id="Clip-4"></g>
                        <path d="M32.4166554,0.370404092 C29.6147277,3.19331969 25.7442217,4.94175959 21.4735711,4.94175959 C17.2038361,4.94175959 13.3333301,3.19331969 10.5314024,0.370404092 C4.36624578,2.80753964 0.000366265061,8.84375448 0.000366265061,15.9074885 L0.000366265061,16.2021176 C0.000366265061,17.9321432 1.39492048,19.3353146 3.1154506,19.3353146 L39.8326072,19.3353146 C41.5531373,19.3353146 42.9476916,17.9321432 42.9476916,16.2021176 L42.9476916,15.9074885 C42.9476916,8.84375448 38.581812,2.80753964 32.4166554,0.370404092" id="Fill-3" fill="#FFFFFF" mask="url(#mask-4)"></path>
                    </g>
                    <path d="M65.1886795,11.181821 C65.1886795,17.3570639 60.2102217,22.3639182 54.0679566,22.3639182 C47.9266072,22.3639182 42.9481494,17.3570639 42.9481494,11.181821 C42.9481494,5.00657801 47.9266072,-0.000276214834 54.0679566,-0.000276214834 C60.2102217,-0.000276214834 65.1886795,5.00657801 65.1886795,11.181821" id="Fill-6" fill="#FFFFFF"></path>
                    <path d="M65.011041,22.1637545 C62.2091133,24.9866701 58.3386072,26.73511 54.0679566,26.73511 C49.7982217,26.73511 45.9277157,24.9866701 43.125788,22.1637545 C41.3036193,22.8837545 39.6453542,23.9250844 38.2041012,25.2067212 C43.5671373,28.7763376 47.0475711,34.5814527 47.6335952,41.128665 L72.4269928,41.128665 C74.1475229,41.128665 75.5420771,39.7254936 75.5420771,37.995468 L75.5420771,37.7008389 C75.5420771,30.6371049 71.1761976,24.60089 65.011041,22.1637545" id="Fill-9" fill="#FFFFFF"></path>
                </g>
            </g>
        </g>
    </g>
</svg>