<?xml version="1.0" encoding="UTF-8" standalone="no"?>
<svg width="61px" height="60px" viewBox="0 0 61 60" version="1.1" xmlns="http://www.w3.org/2000/svg" xmlns:xlink="http://www.w3.org/1999/xlink">
    <!-- Generator: sketchtool 41.1 (35376) - http://www.bohemiancoding.com/sketch -->
    <title>8B4BF3D7-AE91-48C1-8030-D08272601C3C</title>
    <desc>Created with sketchtool.</desc>
    <defs></defs>
    <g id="Page-1" stroke="none" stroke-width="1" fill="none" fill-rule="evenodd">
        <g id="Desktop-Amigos-3-Columns-Copy-2" transform="translate(-764.000000, -505.000000)" fill="#FFFFFF">
            <g id="mailbox" transform="translate(764.000000, 505.000000)">
                <g id="Capa_1" transform="translate(2.000000, 0.000000)">
                    <path d="M47.5027143,21.1343284 L40.204,21.1343284 L40.204,10.7561194 L52.9801429,10.7561194 L53.0145238,10.7561194 C53.7229524,10.7561194 54.2965714,10.1758209 54.2965714,9.45940299 L54.2965714,1.83402985 C54.2965714,1.11761194 53.7220476,0.537313433 53.0145238,0.537313433 L38.2379524,0.537313433 C37.6688571,0.537313433 37.1929524,0.914328358 37.0246667,1.43283582 L36.9559048,1.43283582 L36.9559048,1.83402985 L36.9559048,9.45940299 L36.9559048,10.7561194 L36.9559048,21.1343284 L36.9559048,26.7313433 L34.694,26.7313433 L33.7078095,26.7313433 L33.7078095,21.1343284 L9.72438095,21.1343284 C4.52652381,21.1343284 0.312142857,25.3047761 0.312142857,30.4504478 L0.312142857,59.2638806 L56.9140476,59.2638806 L56.9140476,30.4504478 C56.9149524,25.3047761 52.7005714,21.1343284 47.5027143,21.1343284 Z M21.7025238,55.4561194 L4.16009524,55.4561194 L4.16009524,30.4495522 C4.16009524,27.4128358 6.65633333,24.9420896 9.72438095,24.9420896 L16.1373333,24.9420896 C19.2062857,24.9420896 21.701619,27.4128358 21.701619,30.4495522 L21.701619,55.4561194 L21.7025238,55.4561194 Z" id="Shape"></path>
                </g>
            </g>
        </g>
    </g>
</svg>