<?xml version="1.0" encoding="UTF-8" standalone="no"?>
<svg width="243px" height="122px" viewBox="0 0 243 122" version="1.1" xmlns="http://www.w3.org/2000/svg" xmlns:xlink="http://www.w3.org/1999/xlink">
    <!-- Generator: sketchtool 41 (35326) - http://www.bohemiancoding.com/sketch -->
    <title>9F525312-0BBE-4BCB-AC0D-AD13D05BA708</title>
    <desc>Created with sketchtool.</desc>
    <defs>
        <polygon id="path-1" points="18.8790075 18.85268 18.8790075 0.761010172 0.621259392 0.761010172 0.621259392 18.85268 18.8790075 18.85268"></polygon>
        <polygon id="path-3" points="28.6274768 0.2981 0.894685692 0.2981 0.894685692 21.53063 28.6274768 21.53063 28.6274768 0.2981"></polygon>
        <polygon id="path-5" points="0 80.2905646 108.674253 80.2905646 108.674253 -0.000373846154 0 -0.000373846154"></polygon>
    </defs>
    <g id="Page-1" stroke="none" stroke-width="1" fill="none" fill-rule="evenodd">
        <g id="iPhone-7---Gracias" transform="translate(-53.000000, -415.000000)">
            <g id="Regalos" transform="translate(52.000000, 398.000000)">
                <g id="Jersey" transform="translate(85.373816, 72.019711) rotate(15.000000) translate(-85.373816, -72.019711) translate(12.373816, 17.019711)">
                    <polygon id="Fill-1" fill="#8DD45D" points="3.57348722 91.28845 1.0662391 100.50095 10.621006 105.48835 17.1932015 97.39125 13.0086 89.53175"></polygon>
                    <g id="Group-88" transform="translate(0.000000, 0.802450)">
                        <path d="M2.31887519,99.14927 L10.3422887,103.33697 L15.9210256,96.46417 L12.436785,89.92027 L4.42544662,91.41297 L2.31887519,99.14927 Z M10.620018,105.75257 C10.4531609,105.75257 10.285206,105.71297 10.1282286,105.63267 L0.573461654,100.64527 C0.128875188,100.41317 -0.0939669173,99.90277 0.037762406,99.41767 L2.54501053,90.20517 C2.65368722,89.80917 2.9775218,89.51107 3.3781985,89.43627 L12.814409,87.67847 C13.2732662,87.59487 13.7310256,87.81487 13.9494767,88.22627 L18.1329805,96.08577 C18.3349654,96.46417 18.2899579,96.92727 18.0199128,97.26167 L11.4466195,105.35877 C11.2391459,105.61507 10.9328752,105.75257 10.620018,105.75257 L10.620018,105.75257 Z" id="Fill-2" fill="#575756"></path>
                        <polygon id="Fill-4" fill="#8DD45D" points="141.54678 90.48556 144.054029 99.69916 134.500359 104.68546 127.927066 96.58836 132.111668 88.72886"></polygon>
                        <g id="Group-8" transform="translate(126.240602, 86.900000)">
                            <mask id="mask-2" fill="white">
                                <use xlink:href="#path-1"></use>
                            </mask>
                            <g id="Clip-7"></g>
                            <path d="M2.95886015,9.56428 L8.53759699,16.43708 L16.5610105,12.24938 L14.4544391,4.51308 L6.44310075,3.02038 L2.95886015,9.56428 Z M8.25876992,18.85268 C7.94701053,18.85268 7.64073985,18.71518 7.43216842,18.45888 L0.859972932,10.36178 C0.58992782,10.02738 0.544920301,9.56428 0.745807519,9.18588 L4.93040902,1.32638 C5.14886015,0.91498 5.60442406,0.69498 6.06547669,0.77858 L15.5016872,2.53638 C15.9023639,2.61118 16.2261985,2.90928 16.3348752,3.30528 L18.8421233,12.51778 C18.9738526,13.00178 18.7510105,13.51328 18.3053263,13.74538 L8.7505594,18.73168 C8.5946797,18.81308 8.42562707,18.85268 8.25876992,18.85268 L8.25876992,18.85268 Z" id="Fill-6" fill="#575756" mask="url(#mask-2)"></path>
                        </g>
                        <path d="M104.306352,104.64124 C104.306352,106.40344 102.880382,107.83234 101.121795,107.83234 L46.1774947,107.83234 C44.4178105,107.83234 42.9918406,106.40344 42.9918406,104.64124 L42.9918406,87.73094 C42.9918406,85.96874 44.4178105,84.53984 46.1774947,84.53984 L101.121795,84.53984 C102.880382,84.53984 104.306352,85.96874 104.306352,87.73094 L104.306352,104.64124 Z" id="Fill-9" fill="#8DD45D"></path>
                        <path d="M46.1772752,85.60717 C45.0092752,85.60717 44.0575308,86.55977 44.0575308,87.73127 L44.0575308,104.64157 C44.0575308,105.81307 45.0092752,106.76567 46.1772752,106.76567 L101.121576,106.76567 C102.289576,106.76567 103.240223,105.81307 103.240223,104.64157 L103.240223,87.73127 C103.240223,86.55977 102.289576,85.60717 101.121576,85.60717 L46.1772752,85.60717 Z M101.121576,108.89967 L46.1772752,108.89967 C43.833591,108.89967 41.926809,106.98897 41.926809,104.64157 L41.926809,87.73127 C41.926809,85.38277 43.833591,83.47317 46.1772752,83.47317 L101.121576,83.47317 C103.46526,83.47317 105.372042,85.38277 105.372042,87.73127 L105.372042,104.64157 C105.372042,106.98897 103.46526,108.89967 101.121576,108.89967 L101.121576,108.89967 Z" id="Fill-11" fill="#575756"></path>
                        <path d="M74.6139038,29.23052 C73.2351368,29.23052 71.9990767,28.62882 71.1439338,27.67842 L74.8136932,31.88262 L78.0619188,27.70372 C77.2067759,28.63982 75.9805955,29.23052 74.6139038,29.23052" id="Fill-13" fill="#5FCDD0"></path>
                        <path d="M74.8140226,32.95006 C74.5077519,32.95006 74.2146541,32.81806 74.0126692,32.58596 L70.341812,28.38176 C69.9565038,27.93956 69.998218,27.26966 70.436218,26.88026 C70.8720226,26.49086 71.5405489,26.52826 71.9346391,26.96276 C72.6218271,27.72506 73.5988195,28.16286 74.6131353,28.16286 C75.6351353,28.16286 76.5802932,27.74376 77.2751654,26.98256 C77.6604737,26.55796 78.3125338,26.51836 78.7483383,26.88686 C79.1852406,27.25646 79.2533008,27.90656 78.9020226,28.35866 L75.6548947,32.53866 C75.4594962,32.78946 75.1620075,32.94126 74.8436617,32.95006 L74.8140226,32.95006 Z" id="Fill-15" fill="#575756"></path>
                        <path d="M143.116555,84.25824 L126.288134,28.25614 C126.058705,27.71934 118.967277,9.63974 103.928179,9.16674 C103.489081,9.09194 103.041202,9.04464 102.581247,9.04464 L92.5599383,9.04464 L87.369803,15.72494 C85.9844496,17.09884 84.7780286,18.65094 83.7812767,20.34274 L78.5351564,27.09344 C78.3946451,27.31014 78.2354722,27.51254 78.0620286,27.70284 L71.1440436,27.67864 C71.0858632,27.61374 71.0276827,27.55104 70.9738932,27.48394 L54.8776677,9.04464 L44.8574571,9.04464 C44.4150662,9.04464 43.9847504,9.08974 43.5621188,9.15904 C43.372209,9.15464 43.183397,9.14474 42.9923895,9.14474 C27.5394421,9.14474 20.2679835,27.71274 20.0352617,28.25614 L3.2068406,84.25824 C1.47240451,88.30734 3.34186316,92.99884 7.38156241,94.73684 L12.2533519,96.83234 C16.2941489,98.57034 19.3788105,97.48134 22.7104647,92.64904 L37.7956677,57.48424 L37.4575624,42.26244 L38.4872466,88.52954 C38.4872466,92.93504 42.0516226,96.50784 46.4491865,96.50784 L100.98842,96.50784 C105.385983,96.50784 108.950359,92.93504 108.950359,88.52954 L110.684795,43.23924 L109.644134,57.40724 C109.965773,58.12114 123.612931,92.64904 123.612931,92.64904 C125.348465,96.69814 130.029247,98.57034 134.070044,96.83234 L138.941833,94.73684 C142.981532,92.99884 144.850991,88.30734 143.116555,84.25824" id="Fill-17" fill="#5FCDD0"></path>
                        <path d="M42.9922797,10.21207 C29.3045053,10.21207 22.3107759,25.52627 21.0472722,28.59637 L4.22653534,84.56547 C4.21555789,84.60397 4.20128722,84.64247 4.18482105,84.67877 C2.68530226,88.18117 4.30776842,92.25337 7.80188872,93.75597 L12.6736782,95.85147 C13.7527609,96.31567 14.7077985,96.54117 15.5936782,96.54117 C17.7441594,96.54117 19.6520391,95.17937 21.7739789,92.12907 L36.7263549,57.27667 L36.3926406,42.28697 C36.3794677,41.69737 36.8449113,41.20897 37.4344,41.19577 C38.0502346,41.20677 38.5090917,41.65007 38.5222647,42.23967 L39.5519489,88.50567 C39.5530466,92.34027 42.647588,95.44007 46.4490767,95.44007 L100.98831,95.44007 C104.791994,95.44007 107.885438,92.34027 107.885438,88.52877 L109.025994,58.71877 C108.827302,58.22267 108.703257,57.91687 108.671423,57.84317 C108.602265,57.68367 108.568235,57.50217 108.581408,57.32837 L109.622069,43.16147 C109.664881,42.58067 110.191798,42.14177 110.745062,42.17367 C111.324671,42.20557 111.771453,42.69837 111.749498,43.28027 L111.172084,58.34697 C113.726535,64.73797 124.49431,91.97837 124.604084,92.25557 C125.680971,94.77127 128.170656,96.41467 130.93258,96.41467 C131.867859,96.41467 132.78228,96.22437 133.650595,95.85147 L138.520189,93.75597 C140.212911,93.02777 141.52252,91.68247 142.205317,89.96867 C142.888114,88.25377 142.863964,86.37607 142.137257,84.67877 C142.121889,84.64247 142.107618,84.60397 142.096641,84.56547 L125.283588,28.61397 C123.955317,25.41077 117.135032,10.64987 103.894039,10.23407 C103.845738,10.23187 103.797438,10.22747 103.750235,10.21867 C103.325408,10.14717 102.942295,10.11197 102.581137,10.11197 L93.0812571,10.11197 L88.2094677,16.37977 C88.1820241,16.41607 88.1512872,16.45017 88.1183549,16.48317 C86.7966707,17.79437 85.6451368,19.27607 84.6988812,20.88537 C84.6758286,20.92497 84.6494827,20.96237 84.6220391,20.99867 L79.3770165,27.74937 C79.2606556,27.93307 79.0652571,28.18497 78.846806,28.42367 C78.6459188,28.64477 78.3605053,28.77017 78.0608211,28.77017 L78.0564301,28.77017 L71.1395429,28.74597 C70.8387609,28.74487 70.5522496,28.61617 70.3513624,28.39287 C70.2679338,28.29827 70.2031669,28.22567 70.1416932,28.14977 L54.3945504,10.11197 L44.8562496,10.11197 C44.5115579,10.11197 44.1449113,10.14497 43.7354526,10.21207 C43.6684902,10.22307 43.6015278,10.22417 43.5345654,10.22637 L43.3347759,10.21977 C43.2217083,10.21647 43.1064451,10.21207 42.9922797,10.21207 M15.5936782,98.67627 C14.413603,98.67627 13.1841293,98.39467 11.832806,97.81277 L6.96211429,95.71727 C2.40647519,93.75817 0.28233985,88.46497 2.20339248,83.89447 L19.0153474,27.94847 C19.0263248,27.91107 19.0405955,27.87257 19.0559639,27.83627 C20.4314376,24.49227 27.9476932,8.07807 42.9922797,8.07807 C43.1316932,8.07807 43.270009,8.08137 43.4072271,8.08687 L43.4928511,8.08907 C43.9780541,8.01317 44.4259338,7.97687 44.8562496,7.97687 L54.8775579,7.97687 C55.1849263,7.97687 55.4769263,8.10997 55.680009,8.34207 L71.6291368,26.61307 L77.5591519,26.63397 C77.588791,26.59327 77.6173323,26.55147 77.6436782,26.50967 L82.8996782,19.74137 C83.9205805,18.01657 85.1555429,16.42707 86.5705353,15.01467 L91.7200541,8.38827 C91.9209414,8.12867 92.231603,7.97687 92.5598286,7.97687 L102.581137,7.97687 C103.042189,7.97687 103.518611,8.01757 104.032355,8.10227 C118.623573,8.61267 125.927964,24.58357 127.246355,27.78457 C127.259528,27.81647 127.297949,27.91437 127.307829,27.94847 L144.119783,83.89447 C145.047377,86.09997 145.07043,88.53537 144.18455,90.75957 C143.289889,93.00467 141.577408,94.76467 139.361062,95.71727 L134.491468,97.81277 C133.355302,98.30117 132.158761,98.54867 130.93258,98.54867 C127.316611,98.54867 124.060701,96.39817 122.634731,93.06957 C122.532641,92.81327 114.917588,73.54677 110.971197,63.60607 L110.016159,88.56947 C110.017257,93.51617 105.96658,97.57407 100.98831,97.57407 L46.4490767,97.57407 C41.4719038,97.57407 37.4223248,93.51617 37.4223248,88.52877 L36.8405203,62.41477 L23.6884451,93.07067 C23.6610015,93.13557 23.6258737,93.19717 23.5863549,93.25547 C21.0373925,96.95367 18.4983098,98.67627 15.5936782,98.67627" id="Fill-19" fill="#575756"></path>
                        <path d="M40.8343338,47.07494 C40.2569203,47.07494 39.7826947,46.61294 39.7695218,46.03104 L39.6849955,42.21294 C39.6707248,41.62334 40.1372662,41.13604 40.7256571,41.12174 C41.3118526,41.12284 41.8014466,41.57714 41.8146195,42.16564 L41.8991459,45.98374 C41.9123188,46.57334 41.4468752,47.06174 40.8573865,47.07494 L40.8343338,47.07494 Z" id="Fill-21" fill="#FFFFFF"></path>
                        <path d="M46.4495158,94.27451 C43.288012,94.27451 40.7148992,91.69721 40.7148992,88.52921 L40.3087338,70.23071 C40.2955609,69.64111 40.7610045,69.15381 41.3493955,69.13951 C41.9805985,69.15051 42.4262827,69.59381 42.4383579,70.18341 L42.8456211,88.50501 C42.8467188,90.52021 44.4625985,92.14051 46.4495158,92.14051 C47.0379068,92.14051 47.5154256,92.61791 47.5154256,93.20751 C47.5154256,93.79711 47.0379068,94.27451 46.4495158,94.27451" id="Fill-23" fill="#FFFFFF"></path>
                        <path d="M130.934008,95.24878 C128.636429,95.24878 126.566083,93.88258 125.660444,91.76838 C125.595677,91.60228 114.618233,63.82838 112.16697,57.70138 C111.947421,57.15468 112.213075,56.53318 112.758654,56.31318 C113.305331,56.09428 113.926654,56.36048 114.144008,56.90828 C116.640278,63.14528 127.592474,90.85758 127.631992,90.96098 C128.187451,92.25568 129.489376,93.11478 130.934008,93.11478 C131.419211,93.11478 131.896729,93.01468 132.351195,92.81998 L137.222985,90.72338 C138.106669,90.34388 138.789466,89.64098 139.146233,88.74558 C139.364684,88.19668 139.986008,87.93378 140.530489,88.14938 C141.077165,88.36828 141.34282,88.98868 141.125466,89.53648 C140.55903,90.96208 139.470068,92.08078 138.062759,92.68468 L133.192068,94.78128 C132.468654,95.09148 131.710113,95.24878 130.934008,95.24878" id="Fill-25" fill="#FFFFFF"></path>
                        <path d="M79.5073188,32.07622 C79.2504466,32.07622 78.9924767,31.98382 78.7882962,31.79682 C78.3535895,31.39862 78.3239504,30.72322 78.7213338,30.28872 L79.7060105,29.21072 C79.9321459,28.96322 80.1407173,28.69922 80.3262361,28.42642 L85.6996947,21.47992 C86.5987474,19.95312 87.6877098,18.55062 88.9369429,17.31092 L89.0390331,17.20972 L93.329018,11.68882 C93.6901759,11.22352 94.3598,11.13882 94.8230481,11.50182 C95.287394,11.86372 95.3708226,12.53472 95.0096647,13.00002 L90.6779654,18.57592 C90.6494241,18.61112 90.6186872,18.64632 90.5868526,18.67822 L90.4353639,18.82892 C89.3167624,19.93882 88.3408677,21.19502 87.5340256,22.56452 L87.4275444,22.74492 C87.4044917,22.78452 87.3781459,22.82302 87.3507023,22.85932 L82.0464015,29.68372 C81.8444165,29.98512 81.5721759,30.32942 81.2768827,30.65282 L80.2933038,31.72972 C80.0825368,31.95962 79.7960256,32.07622 79.5073188,32.07622" id="Fill-27" fill="#FFFFFF"></path>
                        <path d="M15.5936782,95.37671 C14.8790466,95.37671 14.0502496,95.17651 13.1325353,94.78051 L8.26074586,92.68501 C6.85563308,92.08111 5.76886617,90.96241 5.19913684,89.53571 C4.63160301,88.10901 4.65026466,86.54811 5.25402406,85.13901 L5.30232481,85.02461 L22.1208662,29.05991 C22.7553624,27.21301 28.6304902,11.37961 42.9900842,11.37741 C42.991182,11.37521 44.6345053,11.27731 44.8573474,11.27731 L53.3835278,11.27731 C53.9719188,11.27731 54.4494376,11.75471 54.4494376,12.34431 C54.4494376,12.93391 53.9719188,13.41131 53.3835278,13.41131 L44.8573474,13.41131 C44.6202346,13.41351 43.0570466,13.51031 43.0570466,13.51031 C30.1069564,13.51251 24.7192271,28.05781 24.1473023,29.71661 L7.32546767,85.69671 C7.31449023,85.73301 7.30131729,85.77041 7.28594887,85.80561 L7.21349774,85.97831 C6.8336782,86.86601 6.82160301,87.84721 7.17836992,88.74371 C7.53513684,89.64131 8.21903158,90.34421 9.10161805,90.72371 L13.9723098,92.81921 C14.7846406,93.16901 15.3016782,93.24271 15.5936782,93.24271 C16.1820692,93.24271 16.659588,93.72011 16.659588,94.30971 C16.659588,94.89931 16.1820692,95.37671 15.5936782,95.37671" id="Fill-29" fill="#FFFFFF"></path>
                        <path d="M78.5355955,27.09322 L78.0613699,27.70372 C78.2348135,27.51342 78.3950842,27.30992 78.5355955,27.09322" id="Fill-31" fill="#5FCDD0"></path>
                        <path d="M78.0611504,28.77028 C77.8174511,28.77028 77.5737519,28.68778 77.3728647,28.51838 C76.9370602,28.14768 76.869,27.49758 77.2213759,27.04658 L77.6966992,26.43608 C78.045782,25.98508 78.6901579,25.89048 79.1556015,26.22598 C79.6199474,26.55818 79.7396015,27.19838 79.4278421,27.67688 C79.260985,27.93318 79.0655865,28.18508 78.8471353,28.42378 C78.6363684,28.65368 78.3498571,28.77028 78.0611504,28.77028" id="Fill-33" fill="#575756"></path>
                        <path d="M71.1436045,27.6782 L70.9734541,27.4835 C71.0283414,27.5506 71.0854241,27.6144 71.1436045,27.6782" id="Fill-35" fill="#5FCDD0"></path>
                        <path d="M71.143385,28.74553 C70.851385,28.74553 70.5626782,28.62673 70.3508135,28.39243 L71.143385,27.67853 L70.3409338,28.37923 L70.3332496,28.37153 C70.267385,28.29893 70.2037158,28.22633 70.1422421,28.14933 C69.7799865,27.69613 69.8458511,27.03613 70.2915353,26.66323 C70.7350241,26.29253 71.3958662,26.34203 71.7767835,26.78203 L71.9458361,26.97783 C72.3311444,27.41893 72.2872346,28.08883 71.8503323,28.47713 C71.6472496,28.65753 71.3947684,28.74553 71.143385,28.74553" id="Fill-37" fill="#575756"></path>
                        <path d="M86.8408,4.12962 L74.8139128,20.46352 L61.2381083,3.83372 C58.2774917,5.17462 56.0282135,6.97532 54.8777774,9.04442 L70.974003,27.48372 L71.1430556,27.67842 C71.9992962,28.62882 73.2353564,29.23052 74.6141233,29.23052 C75.980815,29.23052 77.2058977,28.63982 78.0610406,27.70372 L78.5352662,27.09322 L92.5600481,9.04442 C91.4930406,7.12492 89.4863639,5.43422 86.8408,4.12962" id="Fill-39" fill="#5FCDD0"></path>
                        <path d="M56.2005594,8.93805 L71.9466045,26.97695 C72.6217173,27.72605 73.5987098,28.16385 74.6130256,28.16385 C75.6350256,28.16385 76.5801835,27.74365 77.2750556,26.98245 L77.6965895,26.43685 L91.263612,8.97545 C90.3766346,7.68955 88.9770105,6.50485 87.1569504,5.49835 L75.6712511,21.09745 C75.4758526,21.36255 75.169582,21.52205 74.8402586,21.53085 C74.4988602,21.52425 74.1980782,21.39445 73.9895068,21.13925 L60.9417173,5.15625 C58.8120932,6.22435 57.194018,7.51465 56.2005594,8.93805 M74.6130256,30.29785 C72.9960481,30.29785 71.4438376,29.60375 70.3526797,28.39375 L70.1715519,28.18475 L54.0753263,9.74655 C53.7800331,9.40775 53.7284391,8.91825 53.9468902,8.52555 C55.1906346,6.28595 57.5606647,4.32795 60.7990105,2.86165 C61.2370105,2.66365 61.7573414,2.78355 62.0625143,3.15865 L74.7711008,18.72365 L85.9834617,3.49635 C86.2897323,3.07945 86.8484842,2.94525 87.3117323,3.17185 C90.1988,4.59635 92.3361083,6.44655 93.4909353,8.52555 C93.698409,8.89955 93.6632812,9.36155 93.4009203,9.70035 L78.900815,28.35965 C77.7613564,29.61475 76.2168301,30.29785 74.6130256,30.29785" id="Fill-41" fill="#575756"></path>
                        <path d="M86.8408,4.12962 C83.3565594,2.41142 78.7603038,1.36422 73.7194617,1.36422 C68.977206,1.36422 64.6367248,2.29482 61.2381083,3.83372 L74.8139128,20.46352 L86.8408,4.12962 Z" id="Fill-43" fill="#5FCDD0"></path>
                        <g id="Group-47" transform="translate(59.278195, 0.000000)">
                            <mask id="mask-4" fill="white">
                                <use xlink:href="#path-3"></use>
                            </mask>
                            <g id="Clip-46"></g>
                            <path d="M3.69215338,4.27053 L15.4929053,18.72453 L25.9247699,4.55653 C22.6414165,3.18153 18.6181835,2.43243 14.4412662,2.43243 C10.6002586,2.43243 6.83938647,3.07923 3.69215338,4.27053 L3.69215338,4.27053 Z M15.5357173,21.53063 C15.2162737,21.53063 14.914394,21.38763 14.7113113,21.13903 L1.13550677,4.50923 C0.92473985,4.25293 0.8468,3.91303 0.923642105,3.58963 C0.998288722,3.26733 1.21893534,2.99783 1.52081504,2.86143 C5.22570226,1.18393 9.69461955,0.29733 14.4412662,0.29733 C19.4480782,0.29733 24.2737624,1.31813 28.0335368,3.17163 C28.3167549,3.31133 28.5231308,3.56983 28.5966797,3.87783 C28.6724241,4.18473 28.6065594,4.50923 28.4199429,4.76333 L16.3930556,21.09723 C16.1976571,21.36233 15.8913865,21.52183 15.5620632,21.53063 L15.5357173,21.53063 Z" id="Fill-45" fill="#575756" mask="url(#mask-4)"></path>
                        </g>
                        <path d="M73.7191323,1.36466 C64.8493579,1.36466 57.3495684,4.59756 54.8774481,9.04486 L70.9736737,27.48306 L71.1438241,27.67776 C72.0000647,28.62926 73.2350271,29.23096 74.613794,29.23096 C75.9804857,29.23096 77.2066662,28.64026 78.061809,27.70306 L78.5360346,27.09366 L92.5608165,9.04486 C90.0886962,4.59756 82.5889068,1.36466 73.7191323,1.36466" id="Fill-48" fill="#8DD45D"></path>
                        <path d="M56.1994617,8.9375 L71.9466045,26.9775 C72.6217173,27.7255 73.5987098,28.1633 74.6130256,28.1633 C75.6350256,28.1633 76.5801835,27.7442 77.2750556,26.983 L77.6965895,26.4363 L91.263612,8.9749 C88.5949955,5.093 81.5408902,2.4321 73.7194617,2.4321 C65.9221835,2.4321 58.8889353,5.0765 56.1994617,8.9375 M74.6130256,30.2973 C72.9960481,30.2973 71.4438376,29.6043 70.3526797,28.3932 L70.1715519,28.1842 L54.0753263,9.7471 C53.7800331,9.4083 53.7284391,8.9188 53.9468902,8.525 C56.6824692,3.6036 64.6290406,0.2981 73.7194617,0.2981 C82.808785,0.2981 90.7553564,3.6036 93.4909353,8.525 C93.698409,8.899 93.6632812,9.3621 93.4009203,9.6998 L78.900815,28.3602 C77.7613564,29.6142 76.2168301,30.2973 74.6130256,30.2973" id="Fill-50" fill="#575756"></path>
                        <path d="M87.3190872,4.37019 L74.8135835,20.46319 L60.5703504,4.14689 C60.5703504,4.14689 66.3082602,1.36499 73.7191323,1.36499 C81.1300045,1.36499 87.3190872,4.37019 87.3190872,4.37019" id="Fill-52" fill="#00B7B7"></path>
                        <path d="M62.3485865,4.5617 L74.7662707,18.788 L85.6273534,4.8092 C83.5098045,3.9743 78.8970827,2.4321 73.7190226,2.4321 C68.6847669,2.4321 64.4090526,3.7796 62.3485865,4.5617 L62.3485865,4.5617 Z M74.8134737,21.5303 C74.507203,21.5303 74.215203,21.3983 74.0121203,21.1662 L59.7688872,4.8488 C59.5504361,4.5991 59.4604211,4.2603 59.5273835,3.9336 C59.5932481,3.6069 59.808406,3.3308 60.1069925,3.1856 C60.3506917,3.0679 66.1511729,0.2981 73.7190226,0.2981 C81.2879699,0.2981 87.5220602,3.2824 87.7833233,3.41 C88.0731278,3.5508 88.2838947,3.8148 88.3563459,4.1283 C88.4298947,4.4418 88.3563459,4.7718 88.1598496,5.0259 L75.6543459,21.1189 C75.4589474,21.3708 75.1625564,21.5215 74.8442105,21.5303 L74.8134737,21.5303 Z" id="Fill-54" fill="#575756"></path>
                        <path d="M50.629397,97.48167 L50.629397,107.83267" id="Fill-56" fill="#5FCDD0"></path>
                        <path d="M50.6292872,108.9 C50.0408962,108.9 49.5633774,108.4226 49.5633774,107.833 L49.5633774,97.482 C49.5633774,96.8913 50.0408962,96.4139 50.6292872,96.4139 C51.2176782,96.4139 51.695197,96.8913 51.695197,97.482 L51.695197,107.833 C51.695197,108.4226 51.2176782,108.9 50.6292872,108.9" id="Fill-58" fill="#575756"></path>
                        <path d="M58.5711383,97.48167 L58.5711383,107.83267" id="Fill-60" fill="#5FCDD0"></path>
                        <path d="M58.570809,108.9 C57.982418,108.9 57.5048992,108.4226 57.5048992,107.833 L57.5048992,97.482 C57.5048992,96.8913 57.982418,96.4139 58.570809,96.4139 C59.1592,96.4139 59.6367188,96.8913 59.6367188,97.482 L59.6367188,107.833 C59.6367188,108.4226 59.1592,108.9 58.570809,108.9" id="Fill-62" fill="#575756"></path>
                        <path d="M66.2983805,97.48167 L66.2983805,107.83267" id="Fill-64" fill="#5FCDD0"></path>
                        <path d="M66.2979414,108.9 C65.7095504,108.9 65.2320316,108.4226 65.2320316,107.833 L65.2320316,97.482 C65.2320316,96.8913 65.7095504,96.4139 66.2979414,96.4139 C66.8863323,96.4139 67.3638511,96.8913 67.3638511,97.482 L67.3638511,107.833 C67.3638511,108.4226 66.8863323,108.9 66.2979414,108.9" id="Fill-66" fill="#575756"></path>
                        <path d="M74.0255128,97.48167 L74.0255128,107.83267" id="Fill-68" fill="#5FCDD0"></path>
                        <path d="M74.0249639,108.9 C73.4365729,108.9 72.9590541,108.4226 72.9590541,107.833 L72.9590541,97.482 C72.9590541,96.8913 73.4365729,96.4139 74.0249639,96.4139 C74.6133549,96.4139 75.0908737,96.8913 75.0908737,97.482 L75.0908737,107.833 C75.0908737,108.4226 74.6133549,108.9 74.0249639,108.9" id="Fill-70" fill="#575756"></path>
                        <path d="M81.7526451,97.48167 L81.7526451,107.83267" id="Fill-72" fill="#5FCDD0"></path>
                        <path d="M81.753194,108.9 C81.164803,108.9 80.6872842,108.4226 80.6872842,107.833 L80.6872842,97.482 C80.6872842,96.8913 81.164803,96.4139 81.753194,96.4139 C82.341585,96.4139 82.8191038,96.8913 82.8191038,97.482 L82.8191038,107.833 C82.8191038,108.4226 82.341585,108.9 81.753194,108.9" id="Fill-74" fill="#575756"></path>
                        <path d="M89.4797774,97.48167 L89.4797774,107.83267" id="Fill-76" fill="#5FCDD0"></path>
                        <path d="M89.4802165,108.9 C88.8918256,108.9 88.4143068,108.4226 88.4143068,107.833 L88.4143068,97.482 C88.4143068,96.8913 88.8918256,96.4139 89.4802165,96.4139 C90.0686075,96.4139 90.5461263,96.8913 90.5461263,97.482 L90.5461263,107.833 C90.5461263,108.4226 90.0686075,108.9 89.4802165,108.9" id="Fill-78" fill="#575756"></path>
                        <path d="M97.2069098,97.48167 L97.2069098,107.83267" id="Fill-80" fill="#5FCDD0"></path>
                        <path d="M97.2073489,108.9 C96.6189579,108.9 96.1414391,108.4226 96.1414391,107.833 L96.1414391,97.482 C96.1414391,96.8913 96.6189579,96.4139 97.2073489,96.4139 C97.7957398,96.4139 98.2732586,96.8913 98.2732586,97.482 L98.2732586,107.833 C98.2732586,108.4226 97.7957398,108.9 97.2073489,108.9" id="Fill-82" fill="#575756"></path>
                        <path d="M101.979463,44.60379 C100.860862,43.46199 99.3328015,42.81739 97.7366812,42.81299 L97.7180195,42.81299 C96.1284857,42.81299 94.6037188,43.44879 93.4829218,44.57849 L85.5769669,52.55129 L78.1024256,44.92279 C76.9838241,43.78099 75.4557639,43.13639 73.8585459,43.13089 L73.840982,43.13089 C72.2514481,43.13089 70.7266812,43.76669 69.6047865,44.89749 L61.6988316,52.87029 L54.2242902,45.24289 C53.1056887,44.10109 51.5776286,43.45649 49.9815083,43.45099 L49.9639444,43.45099 C48.3733128,43.45099 46.8485459,44.08679 45.7277489,45.21759 L37.7032376,53.31029 L38.0226812,67.63999 C39.4936586,67.59379 40.9525609,67.01189 42.0722602,65.88219 L49.9386962,57.95009 L57.4527564,65.61819 C59.1509669,67.35179 61.7273729,67.88309 63.9733579,66.96459 C64.9942602,66.54659 65.8548917,65.86569 66.4882902,65.01869 L73.8157338,57.62999 L81.329794,65.29809 C83.0291023,67.03279 85.606606,67.52339 87.8503955,66.60489 C88.7549368,66.23529 89.5321398,65.65229 90.1391925,64.92959 L97.6927714,57.31099 L105.206832,64.98019 C106.368245,66.16379 107.899598,66.76109 109.435343,66.76989 L109.752591,52.53699 L101.979463,44.60379 Z" id="Fill-84" fill="#8DD45D"></path>
                        <path d="M38.7781489,53.7405 L39.0613669,66.4224 C39.9110211,66.2057 40.6882241,65.7635 41.3161338,65.131 L49.1825699,57.1978 C49.3823594,56.9965 49.6535023,56.8832 49.937818,56.8832 C50.2177429,56.9063 50.4976677,56.9976 50.6974571,57.2022 L58.212615,64.8714 C59.5760135,66.2618 61.7605248,66.715 63.571803,65.9769 C64.3896226,65.6414 65.1042541,65.0881 65.6366602,64.3775 C65.6662992,64.339 65.6981338,64.3016 65.7332617,64.2664 L73.0596075,56.8777 C73.2615925,56.6753 73.5338331,56.5576 73.8192466,56.5631 C74.1046602,56.5631 74.3769008,56.6786 74.5755925,56.8821 L82.0896526,64.5513 C83.4519534,65.9406 85.6101188,66.3707 87.4477429,65.6161 C88.1678632,65.3224 88.8166301,64.8472 89.3248857,64.2422 L96.9366451,56.5598 C97.1375323,56.3574 97.4086752,56.2441 97.692991,56.2441 L97.6962842,56.2441 C97.9816977,56.2452 98.2539383,56.3607 98.4526301,56.5642 L105.96669,64.2323 C106.639608,64.9187 107.479382,65.3818 108.397096,65.5853 L108.677021,52.9628 L101.220044,45.3519 C100.30672,44.4202 99.0366301,43.8845 97.7336075,43.8801 C96.421803,43.8801 95.1517128,44.4092 94.2372917,45.331 L86.3324346,53.3038 C86.1326451,53.5051 85.8615023,53.6184 85.5771865,53.6184 L85.5738932,53.6184 C85.2884797,53.6173 85.0162391,53.5018 84.8164496,53.2983 L77.3419083,45.6698 C76.4296827,44.7381 75.1595925,44.2024 73.8554722,44.198 C72.5447654,44.198 71.2757729,44.7271 70.3613519,45.65 L62.4532015,53.6228 C62.253412,53.8241 61.9822692,53.9374 61.6979534,53.9374 C61.3807053,53.8945 61.1381038,53.823 60.9383143,53.6184 L53.4648707,45.991 C52.5515474,45.0593 51.2803594,44.5225 49.9784346,44.5192 C48.6666301,44.5192 47.3987353,45.0483 46.4843143,45.9701 L38.7781489,53.7405 Z M38.0229008,68.7071 C37.7495624,68.7071 37.4872015,68.6026 37.2896075,68.4145 C37.0832316,68.2187 36.9646752,67.9481 36.9580887,67.6632 L36.6386451,53.3335 C36.6320586,53.0442 36.7429308,52.7637 36.9471113,52.558 L44.9727203,44.4653 C46.2845248,43.1431 48.1034872,42.3841 49.9630662,42.3841 C51.8522842,42.3896 53.6745398,43.1585 54.9852466,44.495 L61.7023444,51.3513 L68.8497579,44.1452 C70.1615624,42.8219 71.9805248,42.064 73.8412015,42.064 C75.7304195,42.0695 77.5526752,42.8384 78.8622842,44.1749 L85.5815774,51.0323 L92.7267955,43.8262 C94.0386,42.504 95.8575624,41.745 97.7182391,41.745 C99.6074571,41.7505 101.429713,42.5194 102.74042,43.8559 L110.51245,51.7891 C110.713337,51.9937 110.823111,52.272 110.816525,52.5602 L110.500374,66.7931 C110.487202,67.3739 110.015171,67.837 109.435562,67.837 L109.428976,67.837 C107.539758,67.8271 105.769096,67.078 104.446314,65.7272 L97.6886,58.8302 L90.8957579,65.681 C90.2250361,66.4851 89.2919534,67.1682 88.2534872,67.5928 C87.3873669,67.9481 86.4762391,68.1274 85.5464496,68.1274 C83.6517429,68.1274 81.8843744,67.3882 80.5692767,66.0462 L73.8115624,59.1492 L67.2942541,65.7206 C66.5357128,66.7106 65.5290812,67.4806 64.3764496,67.9525 C61.7868707,69.0151 58.6495173,68.3639 56.6922391,66.3663 L49.9334271,59.4693 L42.8266301,66.6358 C41.5587353,67.9151 39.863818,68.651 38.0558331,68.706 C38.0437579,68.7071 38.0327805,68.7071 38.0229008,68.7071 L38.0229008,68.7071 Z" id="Fill-86" fill="#575756"></path>
                    </g>
                </g>
                <g transform="translate(134.626184, 45.000000)">
                    <path d="M43.9218632,58.0195523 C43.9218632,69.4505215 34.6042425,78.7181677 23.1116333,78.7181677 C11.6177713,78.7181677 2.30140345,69.4505215 2.30140345,58.0195523 C2.30140345,46.5885831 11.6177713,37.3209369 23.1116333,37.3209369 C34.6042425,37.3209369 43.9218632,46.5885831 43.9218632,58.0195523 L43.9218632,58.0195523 Z" id="Fill-1" fill="#8DD45D"></path>
                    <path d="M23.1121345,38.5298308 C12.3073529,38.5298308 3.51719195,47.2728462 3.51719195,58.0196769 C3.51719195,68.7665077 12.3073529,77.5095231 23.1121345,77.5095231 C33.9156632,77.5095231 42.7058241,68.7665077 42.7058241,58.0196769 C42.7058241,47.2728462 33.9156632,38.5298308 23.1121345,38.5298308 M23.1121345,79.9270615 C10.9667782,79.9270615 1.08536437,70.0986462 1.08536437,58.0196769 C1.08536437,45.9394615 10.9667782,36.1122923 23.1121345,36.1122923 C35.2562379,36.1122923 45.1376517,45.9394615 45.1376517,58.0196769 C45.1376517,70.0986462 35.2562379,79.9270615 23.1121345,79.9270615" id="Fill-3" fill="#575756"></path>
                    <path d="M4.80715057,59.2281969 C4.13561034,59.2281969 3.59061034,58.6873662 3.59061034,58.0194277 C3.59061034,47.31372 12.3481966,38.6043508 23.1103805,38.6043508 C23.7831736,38.6043508 24.3269207,39.1451815 24.3269207,39.81312 C24.3269207,40.4810585 23.7831736,41.0218892 23.1103805,41.0218892 C13.6887713,41.0218892 6.0236908,48.6471046 6.0236908,58.0194277 C6.0236908,58.6873662 5.4786908,59.2281969 4.80715057,59.2281969" id="Fill-5" fill="#FFFFFF"></path>
                    <mask id="mask-6" fill="white">
                        <use xlink:href="#path-5"></use>
                    </mask>
                    <g id="Clip-8"></g>
                    <polygon id="Fill-7" fill="#D3EBFA" mask="url(#mask-6)" points="1.25287356 62.8269646 47.7983793 62.8269646 47.7983793 54.6484569 1.25287356 54.6484569"></polygon>
                    <path d="M2.50574713,61.5808108 L46.5455057,61.5808108 L46.5455057,55.8946108 L2.50574713,55.8946108 L2.50574713,61.5808108 Z M47.7983793,64.0731185 L1.25287356,64.0731185 C0.560034483,64.0731185 0,63.5160877 0,62.8269646 L0,54.6484569 C0,53.96058 0.560034483,53.4023031 1.25287356,53.4023031 L47.7983793,53.4023031 C48.4912184,53.4023031 49.0512529,53.96058 49.0512529,54.6484569 L49.0512529,62.8269646 C49.0512529,63.5160877 48.4912184,64.0731185 47.7983793,64.0731185 L47.7983793,64.0731185 Z" id="Fill-9" fill="#575756" mask="url(#mask-6)"></path>
                    <polygon id="Fill-10" fill="#5FCDD0" mask="url(#mask-6)" points="104.038245 79.0444108 104.038245 47.2101646 72.0323368 79.0444108"></polygon>
                    <path d="M74.9668172,77.8353923 L102.821955,77.8353923 L102.821955,50.1296538 L74.9668172,77.8353923 Z M104.038495,80.2529308 L72.0313345,80.2529308 C71.540208,80.2529308 71.0966908,79.9588385 70.9087598,79.5077308 C70.7195759,79.0553769 70.8235644,78.5357308 71.1718632,78.1893 L103.179024,46.3550538 C103.52607,46.0086231 104.049771,45.9051923 104.503311,46.0921154 C104.958105,46.2802846 105.255036,46.7201769 105.255036,47.2099154 L105.255036,79.0441615 C105.255036,79.7121 104.710036,80.2529308 104.038495,80.2529308 L104.038495,80.2529308 Z" id="Fill-11" fill="#575756" mask="url(#mask-6)"></path>
                    <polygon id="Fill-12" fill="#5FCDD0" mask="url(#mask-6)" points="75.121923 46.6097677 75.121923 79.04466 107.127831 47.2091677 107.127831 46.6097677"></polygon>
                    <path d="M76.3384632,47.8187862 L76.3384632,76.1251708 L104.796233,47.8187862 L76.3384632,47.8187862 Z M75.121923,80.2536785 C74.9653138,80.2536785 74.8074517,80.2237708 74.6571069,80.1614631 C74.2023138,79.97454 73.9066356,79.5334015 73.9066356,79.0449092 L73.9066356,46.6100169 C73.9066356,45.9420785 74.4503828,45.4012477 75.121923,45.4012477 L107.127831,45.4012477 C107.799371,45.4012477 108.344371,45.9420785 108.344371,46.6100169 L108.344371,47.2094169 C108.344371,47.5309246 108.215325,47.8387246 107.988555,48.0642785 L75.9826471,79.8997708 C75.7496126,80.1303092 75.4376471,80.2536785 75.121923,80.2536785 L75.121923,80.2536785 Z" id="Fill-13" fill="#575756" mask="url(#mask-6)"></path>
                    <polygon id="Fill-14" fill="#5FCDD0" mask="url(#mask-6)" points="72.0327126 79.0444108 104.038621 79.0444108 104.038621 46.6095185 72.0327126 46.6095185"></polygon>
                    <polygon id="Stroke-15" stroke="#575756" stroke-width="1.941" stroke-linecap="round" stroke-linejoin="round" mask="url(#mask-6)" points="72.0327126 79.0444108 104.038621 79.0444108 104.038621 46.6095185 72.0327126 46.6095185"></polygon>
                    <path d="M73.2843333,77.7982569 L102.785747,77.7982569 L102.785747,47.8556723 L73.2843333,47.8556723 L73.2843333,77.7982569 Z M104.038621,80.2905646 L72.0314598,80.2905646 C71.3386207,80.2905646 70.7785862,79.7322877 70.7785862,79.0444108 L70.7785862,46.6095185 C70.7785862,45.9216415 71.3386207,45.3633646 72.0314598,45.3633646 L104.038621,45.3633646 C104.73146,45.3633646 105.291494,45.9216415 105.291494,46.6095185 L105.291494,79.0444108 C105.291494,79.7322877 104.73146,80.2905646 104.038621,80.2905646 L104.038621,80.2905646 Z" id="Fill-16" fill="#575756" mask="url(#mask-6)"></path>
                    <path d="M74.8291264,45.5396954 C74.8291264,48.4868492 77.2308851,50.8757262 80.193931,50.8757262 L102.055322,50.8757262 C105.018368,50.8757262 107.421379,48.4868492 107.421379,45.5396954 C107.421379,42.5925415 105.018368,40.2036646 102.055322,40.2036646 L80.193931,40.2036646 C77.2308851,40.2036646 74.8291264,42.5925415 74.8291264,45.5396954" id="Fill-17" fill="#EAA560" mask="url(#mask-6)"></path>
                    <path d="M80.1949333,41.44932 C77.9259793,41.44932 76.0817494,43.2836585 76.0817494,45.5391969 C76.0817494,47.7947354 77.9259793,49.63032 80.1949333,49.63032 L102.055071,49.63032 C104.324025,49.63032 106.168255,47.7947354 106.168255,45.5391969 C106.168255,43.2836585 104.324025,41.44932 102.055071,41.44932 L80.1949333,41.44932 Z M102.055071,52.1226277 L80.1949333,52.1226277 C76.5453126,52.1226277 73.5760023,49.1692431 73.5760023,45.5391969 C73.5760023,41.9103969 76.5453126,38.9570123 80.1949333,38.9570123 L102.055071,38.9570123 C105.704692,38.9570123 108.674002,41.9103969 108.674002,45.5391969 C108.674002,49.1692431 105.704692,52.1226277 102.055071,52.1226277 L102.055071,52.1226277 Z" id="Fill-18" fill="#575756" mask="url(#mask-6)"></path>
                    <polygon id="Fill-19" fill="#5FCDD0" mask="url(#mask-6)" points="85.0498184 79.0444108 85.0498184 27.1857185 22.0628529 79.0444108"></polygon>
                    <path d="M25.4392218,77.8353923 L83.8331529,77.8353923 L83.8331529,29.7562846 L25.4392218,77.8353923 Z M85.0496931,80.2529308 L22.0639805,80.2529308 C21.5503023,80.2529308 21.0930034,79.9339154 20.9201069,79.4541462 C20.7459575,78.9743769 20.8937966,78.4372846 21.2884517,78.1132846 L84.2741644,26.2533462 C84.6374977,25.9542692 85.1399,25.8919615 85.5671299,26.0913462 C85.9931069,26.2907308 86.2662333,26.7169154 86.2662333,27.1854692 L86.2662333,79.0441615 C86.2662333,79.7121 85.7212333,80.2529308 85.0496931,80.2529308 L85.0496931,80.2529308 Z" id="Fill-20" fill="#575756" mask="url(#mask-6)"></path>
                    <polygon id="Fill-21" fill="#5FCDD0" mask="url(#mask-6)" points="85.0498184 27.1855938 22.0628529 27.1855938 22.0628529 79.0442862"></polygon>
                    <path d="M23.279769,28.3944877 L23.279769,76.4735954 L81.6737,28.3944877 L23.279769,28.3944877 Z M22.0632287,80.25318 C21.8878264,80.25318 21.7111713,80.2157954 21.545792,80.1385338 C21.1198149,79.9391492 20.8479414,79.5129646 20.8479414,79.0444108 L20.8479414,27.1857185 C20.8479414,26.51778 21.3916885,25.9769492 22.0632287,25.9769492 L85.0501943,25.9769492 C85.5626195,25.9769492 86.0199184,26.2959646 86.1940678,26.7757338 C86.3669644,27.2555031 86.2191253,27.7925954 85.825723,28.1165954 L22.8387575,79.9765338 C22.6169989,80.1597185 22.3413667,80.25318 22.0632287,80.25318 L22.0632287,80.25318 Z" id="Fill-22" fill="#575756" mask="url(#mask-6)"></path>
                    <polygon id="Fill-23" fill="#FFCE1B" mask="url(#mask-6)" points="22.0631034 79.0444108 85.050069 79.0444108 85.050069 27.1857185 22.0631034 27.1857185"></polygon>
                    <path d="M23.2796437,77.8356415 L83.8335287,77.8356415 L83.8335287,28.3944877 L23.2796437,28.3944877 L23.2796437,77.8356415 Z M85.050069,80.25318 L22.0631034,80.25318 C21.3915632,80.25318 20.8478161,79.7123492 20.8478161,79.0444108 L20.8478161,27.1857185 C20.8478161,26.51778 21.3915632,25.9769492 22.0631034,25.9769492 L85.050069,25.9769492 C85.7216092,25.9769492 86.2653563,26.51778 86.2653563,27.1857185 L86.2653563,79.0444108 C86.2653563,79.7123492 85.7216092,80.25318 85.050069,80.25318 L85.050069,80.25318 Z" id="Fill-24" fill="#575756" mask="url(#mask-6)"></path>
                    <polygon id="Fill-25" fill="#FFCE1B" mask="url(#mask-6)" points="19.4684023 33.6831646 87.6447701 33.6831646 87.6447701 17.8719646 19.4684023 17.8719646"></polygon>
                    <path d="M20.6849425,32.4743954 L86.4294828,32.4743954 L86.4294828,19.08198 L20.6849425,19.08198 L20.6849425,32.4743954 Z M87.6447701,34.8919338 L19.4684023,34.8919338 C18.7968621,34.8919338 18.2518621,34.3511031 18.2518621,33.6831646 L18.2518621,17.8732108 C18.2518621,17.2040262 18.7968621,16.6631954 19.4684023,16.6631954 L87.6447701,16.6631954 C88.3163103,16.6631954 88.8613103,17.2040262 88.8613103,17.8732108 L88.8613103,33.6831646 C88.8613103,34.3511031 88.3163103,34.8919338 87.6447701,34.8919338 L87.6447701,34.8919338 Z" id="Fill-26" fill="#575756" mask="url(#mask-6)"></path>
                    <polygon id="Fill-27" fill="#FF7C46" mask="url(#mask-6)" points="43.5298391 33.6831646 63.5820805 33.6831646 63.5820805 17.8719646 43.5298391 17.8719646"></polygon>
                    <path d="M44.7839655,32.4370108 L62.3292069,32.4370108 L62.3292069,19.1181185 L44.7839655,19.1181185 L44.7839655,32.4370108 Z M63.5820805,34.9293185 L43.531092,34.9293185 C42.8382529,34.9293185 42.2782184,34.3710415 42.2782184,33.6831646 L42.2782184,17.8732108 C42.2782184,17.1840877 42.8382529,16.6270569 43.531092,16.6270569 L63.5820805,16.6270569 C64.2749195,16.6270569 64.834954,17.1840877 64.834954,17.8732108 L64.834954,33.6831646 C64.834954,34.3710415 64.2749195,34.9293185 63.5820805,34.9293185 L63.5820805,34.9293185 Z" id="Fill-28" fill="#565655" mask="url(#mask-6)"></path>
                    <polygon id="Fill-29" fill="#5FCDD0" mask="url(#mask-6)" points="60.0953333 33.8886554 47.0178391 33.8886554 47.0178391 58.4989477 60.0953333 47.7309323"></polygon>
                    <path d="M48.2343793,35.0974246 L48.2343793,55.9281323 L58.8787931,47.1626862 L58.8787931,35.0974246 L48.2343793,35.0974246 Z M47.0178391,59.7077169 C46.8424368,59.7077169 46.6657816,59.6703323 46.5004023,59.5930708 C46.0744253,59.3936862 45.8025517,58.9675015 45.8025517,58.4989477 L45.8025517,33.8886554 C45.8025517,33.2207169 46.3462989,32.6798862 47.0178391,32.6798862 L60.0953333,32.6798862 C60.7668736,32.6798862 61.3118736,33.2207169 61.3118736,33.8886554 L61.3118736,47.7321785 C61.3118736,48.0923169 61.1502529,48.4337631 60.8708621,48.6630554 L47.7933678,59.4298246 C47.5716092,59.6130092 47.295977,59.7077169 47.0178391,59.7077169 L47.0178391,59.7077169 Z" id="Fill-30" fill="#575756" mask="url(#mask-6)"></path>
                    <polygon id="Fill-31" fill="#5FCDD0" mask="url(#mask-6)" points="47.0179644 58.4985738 47.0179644 79.0439123 60.0954586 79.0439123 60.0954586 47.7318046"></polygon>
                    <path d="M48.2343793,77.8353923 L58.8787931,77.8353923 L58.8787931,50.3028692 L48.2343793,59.0670692 L48.2343793,77.8353923 Z M60.0953333,80.2529308 L47.0178391,80.2529308 C46.3462989,80.2529308 45.8025517,79.7121 45.8025517,79.0441615 L45.8025517,58.4988231 C45.8025517,58.1386846 45.9641724,57.7972385 46.2423103,57.5667 L59.3198046,46.7999308 C59.6831379,46.4996077 60.1855402,46.4373 60.6127701,46.6379308 C61.0387471,46.8373154 61.3118736,47.2635 61.3118736,47.7320538 L61.3118736,79.0441615 C61.3118736,79.7121 60.7668736,80.2529308 60.0953333,80.2529308 L60.0953333,80.2529308 Z" id="Fill-32" fill="#575756" mask="url(#mask-6)"></path>
                    <polygon id="Fill-33" fill="#FF7C46" mask="url(#mask-6)" points="47.0178391 79.0444108 60.0953333 79.0444108 60.0953333 33.88878 47.0178391 33.88878"></polygon>
                    <path d="M48.2707126,77.7982569 L58.8424598,77.7982569 L58.8424598,35.1349338 L48.2707126,35.1349338 L48.2707126,77.7982569 Z M60.0953333,80.2905646 L47.0178391,80.2905646 C46.3262529,80.2905646 45.7649655,79.7322877 45.7649655,79.0444108 L45.7649655,33.88878 C45.7649655,33.2009031 46.3262529,32.6426262 47.0178391,32.6426262 L60.0953333,32.6426262 C60.7881724,32.6426262 61.3482069,33.2009031 61.3482069,33.88878 L61.3482069,79.0444108 C61.3482069,79.7322877 60.7881724,80.2905646 60.0953333,80.2905646 L60.0953333,80.2905646 Z" id="Fill-34" fill="#565655" mask="url(#mask-6)"></path>
                    <path d="M45.1805,2.41816154 C41.2314425,2.41816154 38.0190747,5.6133 38.0190747,9.54117692 C38.0190747,13.4690538 41.2314425,16.6641923 45.1805,16.6641923 L52.3406724,16.6641923 L52.3406724,9.54117692 C52.3406724,5.6133 49.1283046,2.41816154 45.1805,2.41816154 M53.5572126,19.0817308 L45.1805,19.0817308 C39.8908678,19.0817308 35.5872471,14.8024385 35.5872471,9.54117692 C35.5872471,4.27991538 39.8908678,0.000623076923 45.1805,0.000623076923 C50.4701322,0.000623076923 54.7725,4.27991538 54.7725,9.54117692 L54.7725,17.8729615 C54.7725,18.5409 54.2287529,19.0817308 53.5572126,19.0817308" id="Fill-35" fill="#575756" mask="url(#mask-6)"></path>
                    <path d="M54.7728759,16.6636938 L61.9330483,16.6636938 C65.8821057,16.6636938 69.0944736,13.4685554 69.0944736,9.54067846 C69.0944736,5.61280154 65.8821057,2.41766308 61.9330483,2.41766308 C57.9839908,2.41766308 54.7728759,5.61280154 54.7728759,9.54067846 L54.7728759,16.6636938 Z M61.9330483,19.0812323 L53.5563356,19.0812323 C52.8847954,19.0812323 52.3410483,18.5404015 52.3410483,17.8724631 L52.3410483,9.54067846 C52.3410483,4.27941692 56.6434161,0.000124615385 61.9330483,0.000124615385 C67.2226805,0.000124615385 71.5263011,4.27941692 71.5263011,9.54067846 C71.5263011,14.80194 67.2226805,19.0812323 61.9330483,19.0812323 L61.9330483,19.0812323 Z" id="Fill-36" fill="#575756" mask="url(#mask-6)"></path>
                    <path d="M25.4220575,76.7468769 C24.7505172,76.7468769 24.2055172,76.2060462 24.2055172,75.5381077 L24.2055172,37.3210615 C24.2055172,36.6531231 24.7505172,36.1122923 25.4220575,36.1122923 C26.0935977,36.1122923 26.6385977,36.6531231 26.6385977,37.3210615 L26.6385977,75.5381077 C26.6385977,76.2060462 26.0935977,76.7468769 25.4220575,76.7468769" id="Fill-37" fill="#FFFFFF" mask="url(#mask-6)"></path>
                    <path d="M50.7927471,76.7468769 C50.1212069,76.7468769 49.5762069,76.2060462 49.5762069,75.5381077 L49.5762069,37.3210615 C49.5762069,36.6531231 50.1212069,36.1122923 50.7927471,36.1122923 C51.4642874,36.1122923 52.0092874,36.6531231 52.0092874,37.3210615 L52.0092874,75.5381077 C52.0092874,76.2060462 51.4642874,76.7468769 50.7927471,76.7468769" id="Fill-38" fill="#FFFFFF" mask="url(#mask-6)"></path>
                    <path d="M22.603092,31.9978662 C21.9315517,31.9978662 21.3865517,31.4570354 21.3865517,30.7890969 L21.3865517,20.7662815 C21.3865517,20.0983431 21.9315517,19.5575123 22.603092,19.5575123 C23.2746322,19.5575123 23.8196322,20.0983431 23.8196322,20.7662815 L23.8196322,30.7890969 C23.8196322,31.4570354 23.2746322,31.9978662 22.603092,31.9978662" id="Fill-39" fill="#FFFFFF" mask="url(#mask-6)"></path>
                    <path d="M47.0182149,31.9978662 C46.3466747,31.9978662 45.8016747,31.4570354 45.8016747,30.7890969 L45.8016747,20.7662815 C45.8016747,20.0983431 46.3466747,19.5575123 47.0182149,19.5575123 C47.6897552,19.5575123 48.2347552,20.0983431 48.2347552,20.7662815 L48.2347552,30.7890969 C48.2347552,31.4570354 47.6897552,31.9978662 47.0182149,31.9978662" id="Fill-40" fill="#FFFFFF" mask="url(#mask-6)"></path>
                    <path d="M19.4685276,59.2281969 L4.80740115,59.2281969 C4.13586092,59.2281969 3.59086092,58.6873662 3.59086092,58.0194277 C3.59086092,57.3514892 4.13586092,56.8106585 4.80740115,56.8106585 L19.4685276,56.8106585 C20.1400678,56.8106585 20.6850678,57.3514892 20.6850678,58.0194277 C20.6850678,58.6873662 20.1400678,59.2281969 19.4685276,59.2281969" id="Fill-41" fill="#FFFFFF" mask="url(#mask-6)"></path>
                </g>
            </g>
        </g>
    </g>
</svg>