<?xml version="1.0" encoding="UTF-8" standalone="no"?>
<svg width="58px" height="40px" viewBox="0 0 58 40" version="1.1" xmlns="http://www.w3.org/2000/svg" xmlns:xlink="http://www.w3.org/1999/xlink">
    <!-- Generator: sketchtool 41.1 (35376) - http://www.bohemiancoding.com/sketch -->
    <title>65088252-3FCB-4F45-ACD3-21A252E7C4BE</title>
    <desc>Created with sketchtool.</desc>
    <defs>
        <polygon id="path-1" points="56.392 34.9995 56.392 0.6275 0.0003 0.6275 0.0003 34.9995 56.392 34.9995"></polygon>
    </defs>
    <g id="Page-1" stroke="none" stroke-width="1" fill="none" fill-rule="evenodd">
        <g id="Desktop-Amigos-3-Columns-Copy-2" transform="translate(-199.000000, -524.000000)">
            <g id="Page-1" transform="translate(199.000000, 524.000000)">
                <g id="Group-3" transform="translate(1.000000, 4.255500)">
                    <mask id="mask-2" fill="white">
                        <use xlink:href="#path-1"></use>
                    </mask>
                    <g id="Clip-2"></g>
                    <path d="M30.7073,22.7795 C30.6293,22.8605 30.5423,22.9305 30.4563,23.0025 C30.4203,23.0325 30.3843,23.0645 30.3463,23.0935 C29.8193,23.4965 29.1683,23.7455 28.4533,23.7455 C27.7273,23.7455 27.0673,23.4875 26.5363,23.0725 L0.2213,0.6275 C0.0793,1.1105 0.0003,1.6205 0.0003,2.1495 L0.0003,7.3945 L0.0003,24.3505 L0.0003,29.5955 C0.0003,32.5805 2.4203,34.9995 5.4053,34.9995 L9.1113,34.9995 L10.5793,34.9995 L45.4733,34.9995 L50.9873,34.9995 C53.9723,34.9995 56.3923,32.5805 56.3923,29.5955 L56.3923,24.3505 L56.3923,7.3945 L56.3923,2.1495 C56.3923,1.6295 56.3143,1.1285 56.1773,0.6525 L30.7073,22.7795 Z" id="Fill-1" fill="#FFFFFF" mask="url(#mask-2)"></path>
                </g>
                <path d="M52.9955,1.0975 C52.6685,1.0355 52.3325,1.0005 51.9875,1.0005 L46.4725,1.0005 L11.5795,1.0005 L10.1105,1.0005 L6.4045,1.0005 C6.0725,1.0005 5.7495,1.0345 5.4335,1.0915 L29.4215,21.5775 L52.9955,1.0975 Z" id="Fill-4" fill="#FFFFFF"></path>
            </g>
        </g>
    </g>
</svg>